<svg id="visual" viewBox="0 0 900 600" width="900" height="600" xmlns="http://www.w3.org/2000/svg" xmlns:xlink="http://www.w3.org/1999/xlink" version="1.1"><rect x="0" y="0" width="900" height="600" fill="#001220"></rect><defs><linearGradient id="grad1_0" x1="33.3%" y1="0%" x2="100%" y2="100%"><stop offset="20%" stop-color="#fbae3c" stop-opacity="1"></stop><stop offset="80%" stop-color="#fbae3c" stop-opacity="1"></stop></linearGradient></defs><defs><linearGradient id="grad1_1" x1="33.3%" y1="0%" x2="100%" y2="100%"><stop offset="20%" stop-color="#fbae3c" stop-opacity="1"></stop><stop offset="80%" stop-color="#e1685e" stop-opacity="1"></stop></linearGradient></defs><defs><linearGradient id="grad1_2" x1="33.3%" y1="0%" x2="100%" y2="100%"><stop offset="20%" stop-color="#96446e" stop-opacity="1"></stop><stop offset="80%" stop-color="#e1685e" stop-opacity="1"></stop></linearGradient></defs><defs><linearGradient id="grad1_3" x1="33.3%" y1="0%" x2="100%" y2="100%"><stop offset="20%" stop-color="#96446e" stop-opacity="1"></stop><stop offset="80%" stop-color="#3d3056" stop-opacity="1"></stop></linearGradient></defs><defs><linearGradient id="grad1_4" x1="33.3%" y1="0%" x2="100%" y2="100%"><stop offset="20%" stop-color="#001220" stop-opacity="1"></stop><stop offset="80%" stop-color="#3d3056" stop-opacity="1"></stop></linearGradient></defs><defs><linearGradient id="grad2_0" x1="0%" y1="0%" x2="66.7%" y2="100%"><stop offset="20%" stop-color="#fbae3c" stop-opacity="1"></stop><stop offset="80%" stop-color="#fbae3c" stop-opacity="1"></stop></linearGradient></defs><defs><linearGradient id="grad2_1" x1="0%" y1="0%" x2="66.7%" y2="100%"><stop offset="20%" stop-color="#e1685e" stop-opacity="1"></stop><stop offset="80%" stop-color="#fbae3c" stop-opacity="1"></stop></linearGradient></defs><defs><linearGradient id="grad2_2" x1="0%" y1="0%" x2="66.7%" y2="100%"><stop offset="20%" stop-color="#e1685e" stop-opacity="1"></stop><stop offset="80%" stop-color="#96446e" stop-opacity="1"></stop></linearGradient></defs><defs><linearGradient id="grad2_3" x1="0%" y1="0%" x2="66.7%" y2="100%"><stop offset="20%" stop-color="#3d3056" stop-opacity="1"></stop><stop offset="80%" stop-color="#96446e" stop-opacity="1"></stop></linearGradient></defs><defs><linearGradient id="grad2_4" x1="0%" y1="0%" x2="66.7%" y2="100%"><stop offset="20%" stop-color="#3d3056" stop-opacity="1"></stop><stop offset="80%" stop-color="#001220" stop-opacity="1"></stop></linearGradient></defs><g transform="translate(900, 0)"><path d="M0 405.6C-28.2 376.6 -56.5 347.6 -91.9 342.9C-127.3 338.2 -169.8 357.8 -202.8 351.3C-235.8 344.7 -259.4 311.9 -277.2 277.2C-295 242.4 -307 205.7 -292.7 169C-278.4 132.3 -237.7 95.7 -252.1 67.6C-266.5 39.4 -336.1 19.7 -405.6 0L0 0Z" fill="#18223c"></path><path d="M0 324.5C-22.6 301.3 -45.2 278.1 -73.5 274.3C-101.8 270.6 -135.8 286.3 -162.2 281C-188.7 275.8 -207.5 249.6 -221.7 221.7C-236 193.9 -245.6 164.5 -234.2 135.2C-222.7 105.9 -190.1 76.6 -201.7 54C-213.2 31.5 -268.9 15.8 -324.5 0L0 0Z" fill="#683a67"></path><path d="M0 243.4C-16.9 226 -33.9 208.6 -55.1 205.7C-76.4 202.9 -101.9 214.7 -121.7 210.8C-141.5 206.8 -155.6 187.2 -166.3 166.3C-177 145.5 -184.2 123.4 -175.6 101.4C-167 79.4 -142.6 57.4 -151.3 40.5C-159.9 23.6 -201.6 11.8 -243.4 0L0 0Z" fill="#c0526a"></path><path d="M0 162.2C-11.3 150.6 -22.6 139 -36.8 137.2C-50.9 135.3 -67.9 143.1 -81.1 140.5C-94.3 137.9 -103.8 124.8 -110.9 110.9C-118 97 -122.8 82.3 -117.1 67.6C-111.4 52.9 -95.1 38.3 -100.8 27C-106.6 15.8 -134.4 7.9 -162.2 0L0 0Z" fill="#f6884d"></path><path d="M0 81.1C-5.6 75.3 -11.3 69.5 -18.4 68.6C-25.5 67.6 -34 71.6 -40.6 70.3C-47.2 68.9 -51.9 62.4 -55.4 55.4C-59 48.5 -61.4 41.1 -58.5 33.8C-55.7 26.5 -47.5 19.1 -50.4 13.5C-53.3 7.9 -67.2 3.9 -81.1 0L0 0Z" fill="#fbae3c"></path></g><g transform="translate(0, 600)"><path d="M0 -405.6C38.5 -404.9 77.1 -404.2 101.2 -377.7C125.3 -351.1 135.1 -298.8 161.5 -279.7C187.9 -260.7 230.9 -275 268.7 -268.7C306.5 -262.4 339 -235.5 351.3 -202.8C363.6 -170.1 355.6 -131.6 361.3 -96.8C366.9 -62 386.3 -31 405.6 0L0 0Z" fill="#18223c"></path><path d="M0 -324.5C30.8 -323.9 61.6 -323.4 81 -302.1C100.3 -280.9 108.1 -239 129.2 -223.8C150.3 -208.6 184.7 -220 215 -215C245.2 -209.9 271.2 -188.4 281 -162.2C290.8 -136.1 284.5 -105.3 289 -77.4C293.6 -49.6 309 -24.8 324.5 0L0 0Z" fill="#683a67"></path><path d="M0 -243.4C23.1 -243 46.2 -242.5 60.7 -226.6C75.2 -210.7 81.1 -179.3 96.9 -167.8C112.7 -156.4 138.6 -165 161.2 -161.2C183.9 -157.4 203.4 -141.3 210.8 -121.7C218.1 -102.1 213.3 -78.9 216.8 -58.1C220.2 -37.2 231.8 -18.6 243.4 0L0 0Z" fill="#c0526a"></path><path d="M0 -162.2C15.4 -162 30.8 -161.7 40.5 -151.1C50.1 -140.5 54 -119.5 64.6 -111.9C75.2 -104.3 92.4 -110 107.5 -107.5C122.6 -105 135.6 -94.2 140.5 -81.1C145.4 -68 142.2 -52.6 144.5 -38.7C146.8 -24.8 154.5 -12.4 162.2 0L0 0Z" fill="#f6884d"></path><path d="M0 -81.1C7.7 -81 15.4 -80.8 20.2 -75.5C25.1 -70.2 27 -59.8 32.3 -55.9C37.6 -52.1 46.2 -55 53.7 -53.7C61.3 -52.5 67.8 -47.1 70.3 -40.6C72.7 -34 71.1 -26.3 72.3 -19.4C73.4 -12.4 77.3 -6.2 81.1 0L0 0Z" fill="#fbae3c"></path></g></svg>